<svg id="NSUFlorida-Primary-Horizontal-Blue" xmlns="http://www.w3.org/2000/svg" width="321" height="45" viewBox="0 0 321 45">
  <g id="Group_3" data-name="Group 3" transform="translate(145.285 0.64)">
    <path id="Path_9" data-name="Path 9" d="M88.583,25.033H112.2V20.552H88.583V5.033H115V.5H83.65V43.978h4.933Z" transform="translate(-83.65 -0.448)" fill="#003893"/>
    <rect id="Rectangle_4" data-name="Rectangle 4" width="4.794" height="43.564" transform="translate(35.483 0.052)" fill="#003893"/>
    <path id="Path_10" data-name="Path 10" d="M125.748,40.079a16.7,16.7,0,0,0,16.9-16.765v-.121a16.8,16.8,0,0,0-33.608.121v.121A16.463,16.463,0,0,0,125.748,40.079Zm-11.793-16.9c0-6.765,4.794-12.422,11.793-12.422,6.791,0,11.967,5.657,11.967,12.543v.121c0,6.765-4.863,12.353-11.845,12.353-6.791,0-11.915-5.588-11.915-12.491v-.1Z" transform="translate(-64.942 3.969)" fill="#003893"/>
    <path id="Path_11" data-name="Path 11" d="M135.458,26.665c0-9.74,5.766-14.81,12.853-14.81h.382V6.665c-6.148-.242-10.855,3.616-13.235,9V7.235H130.63v32.3h4.828Z" transform="translate(-49.034 4.045)" fill="#003893"/>
    <rect id="Rectangle_5" data-name="Rectangle 5" width="4.794" height="32.699" transform="translate(102.646 10.882)" fill="#003893"/>
    <rect id="Rectangle_6" data-name="Rectangle 6" width="5.471" height="5.26" transform="translate(102.177 0.156)" fill="#003893"/>
    <path id="Path_12" data-name="Path 12" d="M163.091,44.674c5.905,0,9.709-3.287,12.314-7.128v6.436H180.2V.47H175.4V18.082c-2.484-3.6-6.339-6.817-12.314-6.817-7.712,0-15.371,6.194-15.371,16.661v.121C147.737,38.6,155.379,44.674,163.091,44.674Zm-10.438-16.8c0-7.751,5.106-12.336,11.324-12.336,5.975,0,11.637,4.965,11.637,12.336V28c0,7.37-5.662,12.388-11.637,12.388-6.1,0-11.324-4.827-11.324-12.388Z" transform="translate(-36.442 -0.47)" fill="#003893"/>
    <path id="Path_13" data-name="Path 13" d="M180.513,40.155a14.184,14.184,0,0,0,11.654-5.5v4.81h4.759V19.722c0-4.118-1.129-7.249-3.387-9.5-2.327-2.318-5.888-3.564-10.473-3.564a26.68,26.68,0,0,0-11.793,2.751l1.442,3.927a22.74,22.74,0,0,1,9.848-2.318c6.079,0,9.587,2.993,9.587,8.737v1a34.034,34.034,0,0,0-9.9-1.367c-8.215,0-13.86,3.616-13.86,10.554v.121C168.407,36.712,174.434,40.155,180.513,40.155Zm-7.208-10.433c0-3.875,3.456-6.488,9.466-6.488a33.94,33.94,0,0,1,9.466,1.367v2.993c0,5.121-4.828,8.685-10.786,8.685-4.394,0-8.146-2.37-8.146-6.436v-.121Z" transform="translate(-21.211 4.049)" fill="#003893"/>
  </g>
  <g id="Group_4" data-name="Group 4" transform="translate(0 0)">
    <path id="Path_14" data-name="Path 14" d="M49.493,33.629a24.954,24.954,0,0,1-15.232-5.087L26.48,37.782c5.54,4.827,13.5,7.318,22.336,7.318,11.689,0,19.227-5.571,19.227-14.689v-.138c0-8.737-7.468-11.955-18.6-14-4.6-.865-5.784-1.609-5.784-2.785V13.37c0-1.055.99-1.8,3.178-1.8A22.853,22.853,0,0,1,59.9,15.844l7.086-9.792C61.946,2.09,55.728.1,47.322.1c-12,0-18.48,6.384-18.48,14.619v.121c0,9.17,8.58,11.955,18.341,13.945,4.672.934,6.027,1.609,6.027,2.855v.121C53.227,32.937,52.1,33.629,49.493,33.629Z" transform="translate(19.511 -0.1)" fill="#003893"/>
    <path id="Path_15" data-name="Path 15" d="M73.158,44.739c12.991,0,21.641-5.83,21.641-20.623V.5H80V24.531c0,5.26-2.8,7.37-6.722,7.37s-6.722-2.3-6.722-7.682V.5H51.76V24.41C51.76,38.787,60.166,44.739,73.158,44.739Z" transform="translate(38.138 0.192)" fill="#003893"/>
    <path id="Path_16" data-name="Path 16" d="M13.721,43.944c2.171-5.536.816-12.249-.3-16.246a.457.457,0,0,1,.625-.519C23.4,30.83,28.988,39.463,31.35,43.944H43.542V.57H29.109V19.722L13.617.57H0V43.944H13.721Z" transform="translate(0 0.243)" fill="#003893"/>
  </g>
</svg>
